<?xml version="1.0" standalone="no"?>
<!DOCTYPE svg PUBLIC "-//W3C//DTD SVG 20010904//EN"
 "http://www.w3.org/TR/2001/REC-SVG-20010904/DTD/svg10.dtd">
<svg version="1.0" xmlns="http://www.w3.org/2000/svg"
 width="254.000000pt" height="198.000000pt" viewBox="0 0 254.000000 198.000000"
 preserveAspectRatio="xMidYMid meet">

<g transform="translate(0.000000,198.000000) scale(0.100000,-0.100000)"
fill="#000000" stroke="none">
<path d="M1553 1393 c9 -2 23 -2 30 0 6 3 -1 5 -18 5 -16 0 -22 -2 -12 -5z"/>
<path d="M1653 1393 c9 -2 23 -2 30 0 6 3 -1 5 -18 5 -16 0 -22 -2 -12 -5z"/>
<path d="M2070 1370 c0 -17 8 -19 66 -22 l66 -3 -96 -70 c-53 -38 -100 -71
-106 -73 -5 -2 -11 27 -13 65 l-4 68 0 -73 0 -72 -75 -58 c-98 -74 -186 -140
-274 -205 -40 -29 -107 -79 -151 -112 -43 -33 -86 -64 -95 -70 -9 -5 -35 -23
-58 -39 -35 -25 -44 -27 -63 -17 -22 12 -22 15 -22 219 l1 207 -3 -202 c-2
-119 -7 -203 -13 -203 -5 0 -31 14 -57 30 l-48 31 -5 72 c-5 70 -6 72 -32 75
-16 2 -28 8 -28 13 0 5 -11 9 -25 9 -14 0 -25 -4 -25 -10 0 -5 -11 -10 -25
-10 -16 0 -28 -7 -33 -20 -7 -19 -8 -19 -36 -1 -28 19 -28 19 -85 -13 -31 -18
-72 -43 -92 -57 -110 -74 -149 -99 -159 -99 -5 0 -10 13 -10 29 0 25 -4 30
-27 33 -27 3 -28 6 -28 56 0 47 -2 52 -22 52 -21 0 -23 -5 -23 -55 0 -54 0
-55 -30 -55 l-30 0 0 -87 0 -88 -95 -58 c-127 -78 -141 -90 -124 -104 11 -8
37 4 114 53 l100 63 3 -50 c3 -47 4 -49 33 -49 22 0 29 -5 29 -20 0 -15 7 -20
25 -20 18 0 25 5 25 20 0 15 7 20 25 20 25 0 25 0 25 98 0 114 -4 108 106 170
39 22 89 51 110 66 l39 26 6 -52 6 -53 1 61 c2 53 5 62 26 73 20 11 29 11 55
-5 30 -18 31 -20 31 -96 l0 -78 30 0 30 0 0 -105 0 -105 25 0 25 0 0 105 0
105 30 0 c25 0 30 4 30 25 l0 25 62 -38 61 -38 0 -64 0 -65 4 58 c4 54 5 57
25 46 17 -9 27 -6 58 18 21 15 82 62 136 103 55 41 126 93 159 115 33 22 63
45 67 51 8 12 274 204 283 204 3 0 5 -33 5 -74 0 -69 -2 -75 -22 -79 -20 -4
-19 -4 5 -6 l27 -1 0 93 1 92 119 87 c66 49 120 83 120 78 0 -6 -14 -38 -30
-71 -26 -51 -28 -60 -15 -65 9 -4 17 -5 19 -3 6 7 73 143 89 182 l16 37 -120
0 c-111 0 -119 -1 -119 -20z"/>
<path d="M1908 1373 c7 -3 16 -2 19 1 4 3 -2 6 -13 5 -11 0 -14 -3 -6 -6z"/>
<path d="M1308 1183 c7 -3 16 -2 19 1 4 3 -2 6 -13 5 -11 0 -14 -3 -6 -6z"/>
<path d="M834 1000 c0 -58 1 -81 3 -52 2 28 2 76 0 105 -2 28 -3 5 -3 -53z"/>
<path d="M1853 963 c9 -2 23 -2 30 0 6 3 -1 5 -18 5 -16 0 -22 -2 -12 -5z"/>
<path d="M1608 513 c7 -3 16 -2 19 1 4 3 -2 6 -13 5 -11 0 -14 -3 -6 -6z"/>
<path d="M1308 303 c7 -3 16 -2 19 1 4 3 -2 6 -13 5 -11 0 -14 -3 -6 -6z"/>
</g>
</svg>
